<svg id="Слой_1" data-name="Слой 1" xmlns="http://www.w3.org/2000/svg" viewBox="0 0 512 512"><defs><style>.cls-1{fill:#010101;}</style></defs><path class="cls-1" d="M497.09,223.74A39.17,39.17,0,0,0,464,216.15a59.07,59.07,0,0,1-72.07-57,39.25,39.25,0,0,0-39.07-39.07,59.09,59.09,0,0,1-57-72.07A39.42,39.42,0,0,0,266,1a40.19,40.19,0,0,0-8.46-1H256C114.57,0,0,114.66,0,256.05S114.66,512,256.05,512,512,397.34,512,256v-1.53h0A39.34,39.34,0,0,0,497.09,223.74ZM126.81,185.87a29.54,29.54,0,1,1,0,41.78h0A29.56,29.56,0,0,1,126.81,185.87Zm61.47,179.62a29.54,29.54,0,1,1,0-41.77h0A29.54,29.54,0,0,1,188.28,365.49ZM254.81,267a29.54,29.54,0,1,1,41.78,0h0A29.54,29.54,0,0,1,254.81,267Zm91,118.16a29.54,29.54,0,1,1,0-41.78h0A29.56,29.56,0,0,1,345.82,385.19Z"/></svg>